<svg width="36" height="36" viewBox="0 0 36 36" fill="none" xmlns="http://www.w3.org/2000/svg">
<g clip-path="url(#clip0_28_299)">
<path d="M8.50488 30.5566L14.5957 23.1709L17.3818 26.7246L12.0117 33.5537C9.95507 36.167 6.14941 33.4131 8.50488 30.5566ZM15.6182 13.7373C16.1982 11.8447 15.9316 10.2275 13.7519 7.82519L8.42578 1.41797C7.66992 0.530272 5.88867 1.83398 6.63281 2.90918L10.8926 8.15625C11.6982 9.13476 10.2012 10.4297 9.36914 9.42187L4.96289 3.99609C4.14257 3.05566 2.44628 4.29785 3.30468 5.37305C4.54687 6.86719 6.46874 9.30762 7.71093 10.8018C8.57226 11.6777 7.26269 12.9756 6.41308 11.8828L2.03906 6.49219C1.39746 5.79492 0.348628 6.22851 0.0703073 7.04297C-0.228521 7.91309 0.506831 8.54883 1.00781 9.19336L5.88867 15.498C7.40332 17.2529 9.09667 18.293 11.0654 17.7041C11.3672 17.6133 11.7363 17.4287 12.1318 17.1855L25.2451 34.1133C25.9512 35.0244 27.3135 35.1211 28.1982 34.3857L28.4004 34.2187C29.3965 33.3896 29.5576 31.875 28.7051 30.8965L14.8184 14.9414C15.2227 14.4902 15.5185 14.0625 15.6182 13.7373ZM19.3301 17.4287L21.4893 14.8096C18.7119 7.9248 29.0039 -1.25098 33.9932 2.96777C40.0547 8.09766 31.0459 20.4609 24.7148 17.4053L22.1572 20.6543L19.3301 17.4287Z" fill="#F1F1F1"/>
</g>
<defs>
<clipPath id="clip0_28_299">
<rect width="36" height="36" fill="white"/>
</clipPath>
</defs>
</svg>
