<svg width="41" height="41" viewBox="0 0 41 41" fill="none" xmlns="http://www.w3.org/2000/svg">
<path d="M20.6667 27.5H7.33333C6.44928 27.5 5.60143 27.14 4.97631 26.4993C4.35119 25.8585 4 24.9895 4 24.0833V10.4167C4 9.51051 4.35119 8.64147 4.97631 8.00072C5.60143 7.35997 6.44928 7 7.33333 7H34C34.8841 7 35.7319 7.35997 36.357 8.00072C36.9821 8.64147 37.3333 9.51051 37.3333 10.4167V18.9583" stroke="black" stroke-width="3" stroke-linecap="round" stroke-linejoin="round"/>
<path d="M27.3333 29.2083L32.3333 34.3333L37.3333 29.2083" stroke="black" stroke-width="3" stroke-linecap="round" stroke-linejoin="round"/>
<path d="M30.6667 17.25H30.6837" stroke="black" stroke-width="3" stroke-linecap="round" stroke-linejoin="round"/>
<path d="M32.3333 24.0833V34.3333" stroke="black" stroke-width="3" stroke-linecap="round" stroke-linejoin="round"/>
<path d="M10.6667 17.25H10.6837" stroke="black" stroke-width="3" stroke-linecap="round" stroke-linejoin="round"/>
<path d="M20.6666 20.6666C22.5076 20.6666 24 19.137 24 17.25C24 15.363 22.5076 13.8333 20.6666 13.8333C18.8257 13.8333 17.3333 15.363 17.3333 17.25C17.3333 19.137 18.8257 20.6666 20.6666 20.6666Z" stroke="black" stroke-width="3" stroke-linecap="round" stroke-linejoin="round"/>
</svg>
