<svg width="32" height="32" viewBox="0 0 32 32" fill="none" xmlns="http://www.w3.org/2000/svg">
<path d="M11.75 20.25C11.75 19.4676 12.3843 18.8333 13.1667 18.8333C13.9491 18.8333 14.5833 19.4676 14.5833 20.25V24.5C14.5833 25.2824 13.9491 25.9167 13.1667 25.9167C12.3843 25.9167 11.75 25.2824 11.75 24.5V20.25Z" fill="#F1F1F1"/>
<path d="M18.8333 18.8333C18.0509 18.8333 17.4166 19.4676 17.4166 20.25V24.5C17.4166 25.2824 18.0509 25.9167 18.8333 25.9167C19.6157 25.9167 20.25 25.2824 20.25 24.5V20.25C20.25 19.4676 19.6157 18.8333 18.8333 18.8333Z" fill="#F1F1F1"/>
<path fill-rule="evenodd" clip-rule="evenodd" d="M20.25 2.57703C19.8588 1.89945 20.0909 1.03301 20.7685 0.641816C21.4461 0.250616 22.3125 0.482767 22.7038 1.16036L26.3632 7.49865L27.3363 7.49998C27.399 7.50017 27.4591 7.50219 27.556 7.50912C27.6712 7.51734 27.8263 7.53311 28.0089 7.56354C28.3673 7.62326 28.8668 7.74536 29.3835 8.00371C29.9057 8.26481 30.4711 8.67874 30.9026 9.32612C31.3402 9.98239 31.5833 10.7937 31.5833 11.75C31.5833 12.7062 31.3402 13.5176 30.9027 14.1738C30.4711 14.8212 29.9057 15.2352 29.3835 15.4962C29.1286 15.6237 28.8779 15.718 28.6463 15.7879L27.5618 27.7181C27.3628 29.9071 25.5273 31.5833 23.3292 31.5833H8.67073C6.47262 31.5833 4.6372 29.9071 4.43819 27.7181L3.35363 15.7879C3.12199 15.718 2.87128 15.6237 2.61641 15.4962C2.09419 15.2352 1.52887 14.8212 1.09726 14.1738C0.659754 13.5176 0.416626 12.7062 0.416626 11.75C0.416626 10.7938 0.659754 9.98241 1.09726 9.32614C1.52887 8.67875 2.09419 8.26483 2.61641 8.00371C3.13308 7.74538 3.63261 7.62326 3.99102 7.56354C4.17358 7.53311 4.32881 7.51734 4.44395 7.50912C4.54166 7.50214 4.60186 7.50008 4.66521 7.49998L5.63632 7.49946L9.29621 1.16036C9.68742 0.482781 10.5538 0.250616 11.2314 0.641816C11.909 1.03301 12.1412 1.89943 11.75 2.57703L8.909 7.4977C13.6358 7.49503 18.3628 7.49246 23.0897 7.49555L20.25 2.57703ZM4.45682 10.3583C4.57433 10.3387 4.66017 10.3341 4.6794 10.3333H27.3205C27.3398 10.3341 27.4257 10.3387 27.5431 10.3583C27.7159 10.3871 27.9247 10.4421 28.1164 10.5379C28.3026 10.631 28.4455 10.7483 28.5452 10.8978C28.6389 11.0384 28.75 11.2895 28.75 11.75C28.75 12.2104 28.6389 12.4615 28.5451 12.6022C28.4455 12.7516 28.3026 12.869 28.1164 12.962C27.9247 13.0579 27.7159 13.1128 27.5431 13.1417C27.4255 13.1612 27.3398 13.1659 27.3205 13.1667H4.6794C4.66017 13.1659 4.57433 13.1612 4.45682 13.1417C4.28397 13.1128 4.07517 13.0579 3.88351 12.962C3.6974 12.869 3.55439 12.7517 3.45474 12.6022C3.361 12.4616 3.24996 12.2104 3.24996 11.75C3.24996 11.2896 3.361 11.0384 3.45474 10.8978C3.55439 10.7483 3.6974 10.631 3.88351 10.5379C4.07517 10.4421 4.28397 10.3871 4.45682 10.3583ZM7.25989 27.4616L6.21792 16H25.782L24.7401 27.4616C24.6736 28.1913 24.0619 28.75 23.3292 28.75H8.67073C7.93803 28.75 7.32622 28.1913 7.25989 27.4616Z" fill="#F1F1F1"/>
</svg>
